<?xml version="1.0" encoding="utf-8"?>
<svg width="800" height="1018.4" viewBox="0 0 800 1018.4" fill="none" xmlns="http://www.w3.org/2000/svg">
  <defs>
    <path id="path_1" d="M793 8.82149e-06C793 8.82149e-06 792.859 0.0277793 792.859 0.0277793C793.257 0.00254016 793.638 -0.00554787 794.004 0.0037093C794.004 0.0037093 794 8.98257e-06 794 8.98257e-06L800 0L792.997 0C792.997 0 793 8.82149e-06 793 8.82149e-06ZM787.612 1.06267C727.06 19.165 459.554 264.438 299.047 420.755C185.178 534.914 164.345 585.781 160.533 600.572C159.858 603.192 159.978 607.565 160.609 610.195C164.486 626.359 175.047 636.448 191.641 639.811C190.93 639.753 190.263 639.677 189.678 639.589C189.678 639.589 194.522 640.318 194.522 640.318C193.542 640.17 192.582 640.001 191.641 639.811C194.18 640.016 197.291 639.99 199.336 639.459C214.104 635.63 264.845 614.726 378.686 500.596C544.951 338.67 798.828 54.0199 800 6.70684C800 6.70684 800 387.384 800 387.384C799.986 371.529 798.529 355.289 795.6 338.666C785.863 283.402 754.775 224.135 703.353 176.1C684.86 198.257 664.743 221.689 643.603 245.756C642.759 270.413 628.405 295.089 606.28 307.863C597.879 312.714 589.186 315.37 580.593 316.077C516.454 386.334 448.71 456.762 391.234 512.597C275.236 628.6 219.074 653.117 203.349 658.099C202.156 658.477 200.585 658.698 198.987 658.743C200.754 665.689 203.35 673.394 207.24 682.154C232.952 724.283 345.418 731.964 457.102 710.111C457.102 710.111 136.653 773.127 136.653 773.127C149.78 763.264 166.35 747.271 174.646 725.149C186.081 694.655 182.957 669.984 180.845 660.033C180.283 657.387 177.458 654.99 174.828 654.357C159.296 650.622 149.373 640.698 145.638 625.165C145.005 622.535 142.515 620.237 139.81 620.282C127.89 620.485 96.6029 623.346 72.8522 646.306C42.9129 675.249 44.9089 710.179 44.9089 710.179C49.8987 690.219 62.8724 680.239 62.8724 680.239C49.9228 697.898 49.0086 712.471 48.1167 726.688C46.7403 748.628 45.4171 769.721 0 800C0 800 0 156.41 0 156.41C0 156.41 362.791 84.8538 362.791 84.8538C157.559 125.823 -17.1867 344.198 1.35215 448.772C19.6448 551.958 117.148 532.553 161.498 560.697C168.315 548.623 177.737 533.901 190.756 516.338C159.563 524.154 120.964 516.074 113.395 481.08C105.026 442.392 130.445 417.106 159.342 403.08C186.024 390.13 235.128 384.594 262.645 412.109C265.494 414.957 268.354 420.012 269.994 424.636C275.24 419.218 280.705 413.663 286.397 407.971C326.869 368.654 373.933 323.596 422.671 277.88C415.727 279.923 408.267 281 400.5 281C363.221 281 333 255.279 333 218C333 180.721 363.221 146 400.5 146C437.779 146 468 181.621 468 218.9C468 225.874 466.942 232.412 464.979 238.433C513.055 193.887 561.379 150.104 605.388 111.799C552.63 88.5371 489.401 75.4556 416.092 78.414C398.728 79.1147 381.478 81.2087 364.434 84.5296C364.434 84.5296 787.612 1.06267 787.612 1.06267ZM800 642.68C800 642.68 800 387.844 800 387.844C799.909 490.576 739.214 577.196 626.098 648.075C580.022 676.946 519.346 697.811 458.34 709.867C458.34 709.867 800 642.68 800 642.68C800 642.68 800 642.68 800 642.68ZM119.229 776.554C126.64 770.551 132.794 763.397 139.716 755.09C139.716 755.09 131.66 765.832 124.61 775.495C124.61 775.495 119.229 776.554 119.229 776.554ZM800 5.99998C800 5.99998 799.998 5.99794 799.998 5.99794L800 6.06548C800 6.06548 800 5.99998 800 5.99998ZM188.685 327.739C212.647 356.297 252.331 356.574 280.888 332.612C309.446 308.649 316.642 270.21 292.679 241.652C268.716 213.095 222.669 205.233 194.112 229.196C165.554 253.158 164.722 299.182 188.685 327.739ZM658 333C620.721 333 595 363.221 595 400.5C595 437.779 619.821 468 657.1 468C694.379 468 730 437.779 730 400.5C730 363.221 695.279 333 658 333Z" />
    <path id="text_1" d="M14.306221008300781,840.7608032226562Q9.70587158203125,853.6604614257812,9.501128196716309,869.3409423828125Q9.29637622833252,885.0220947265625,13.582050323486328,896.2222900390625Q17.868389129638672,907.3793334960938,25.668819427490234,914.157958984375Q33.51423645019531,920.8827514648438,43.72365951538086,923.0567626953125Q53.977577209472656,925.2219848632812,65.61917877197266,922.93798828125Q77.4385757446289,920.619140625,87.58198547363281,914.2741088867188Q97.77046966552734,907.8761596679688,106.05561828613281,897.897705078125L94.39094543457031,888.3662109375Q88.6669921875,895.6661987304688,81.51698303222656,900.1790161132812Q74.36743927001953,904.647705078125,65.83614349365234,906.3214721679688Q54.72774124145508,908.5008544921875,45.95698547363281,904.756591796875Q37.230735778808594,901.0026245117188,32.261009216308594,891.2696533203125Q27.291976928710938,881.4915161132812,27.496728897094727,865.8103637695312Q27.70147132873535,850.1298828125,32.95203399658203,838.3468627929688Q38.20269775390625,826.563720703125,47.07146453857422,819.40283203125Q55.98530578613281,812.188720703125,67.09370422363281,810.0093383789062Q74.55860137939453,808.5447998046875,81.13849639892578,810.3642578125Q87.76335144042969,812.1304321289062,93.33025360107422,816.8590087890625L105.83788299560547,802.5857543945312Q97.76696014404297,796.1267700195312,88.00415802001953,793.6876831054688Q78.24137115478516,791.24853515625,67.3106689453125,793.39306640625Q55.6690673828125,795.6770629882812,45.304630279541016,801.97607421875Q34.98468780517578,808.266357421875,26.923480987548828,818.068115234375Q18.90725326538086,827.816650390625,14.306221008300781,840.7608032226562ZM116.38043975830078,837.7527465820312Q110.77410125732422,849.6499633789062,110.56703186035156,865.5086059570312Q110.36170196533203,881.23388671875,115.68360137939453,891.1207885742188Q121.006103515625,900.9625244140625,130.39837646484375,904.6748657226562Q139.7896728515625,908.3863525390625,151.9646759033203,905.9976806640625Q164.1836700439453,903.6004028320312,173.7203826904297,896.1754150390625Q183.2581024169922,888.7492065429688,188.8656005859375,876.7630615234375Q194.47369384765625,864.7317504882812,194.67901611328125,849.0064697265625Q194.88609313964844,833.1478881835938,189.56243896484375,823.39501953125Q184.23936462402344,813.5975341796875,174.84825134277344,809.7969360351562Q165.45811462402344,805.9962158203125,153.23912048339844,808.3934936523438Q141.06411743164062,810.7821044921875,131.5262451171875,818.29638671875Q121.98737335205078,825.8109130859375,116.38043975830078,837.7527465820312ZM130.40904235839844,880.1007690429688Q127.5299301147461,873.1116333007812,127.67302703857422,862.1525268554688Q127.8155288696289,851.2385864257812,130.8924102783203,843.0809326171875Q134.01229858398438,834.9156494140625,139.61865234375,829.8165893554688Q145.2255859375,824.6731567382812,153.0465850830078,823.1387329101562Q160.91058349609375,821.5958862304688,166.36764526367188,824.5686645507812Q171.86929321289062,827.4884033203125,174.79241943359375,834.4680786132812Q177.71453857421875,841.4487915039062,177.572021484375,852.3627319335938Q177.42893981933594,863.3218383789062,174.30905151367188,871.4879150390625Q171.1881561279297,879.6542358398438,165.58297729492188,884.6638793945312Q160.02178955078125,889.6649780273438,152.1577911376953,891.2078247070312Q144.3367919921875,892.7422485351562,138.833984375,889.911865234375Q133.33116149902344,887.0814819335938,130.40904235839844,880.1007690429688ZM205.45652770996094,893.6810302734375L207.16021728515625,763.2008056640625L223.9149169921875,756.27001953125L222.1635284423828,890.4032592773438L205.45652770996094,893.6810302734375ZM239.9884490966797,813.5018310546875Q234.38209533691406,825.3990478515625,234.17501831054688,841.2576904296875Q233.96969604492188,856.9829711914062,239.29161071777344,866.869873046875Q244.61410522460938,876.7116088867188,254.0063934326172,880.4238891601562Q263.3976745605469,884.1354370117188,275.5726623535156,881.7467651367188Q287.7916564941406,879.3494873046875,297.3283996582031,871.9244995117188Q306.8660888671875,864.4982299804688,312.4736022949219,852.5120849609375Q318.0816955566406,840.4808349609375,318.2870178222656,824.7555541992188Q318.49407958984375,808.8969116210938,313.1704406738281,799.1441040039062Q307.8473815917969,789.3466186523438,298.45623779296875,785.5460205078125Q289.06610107421875,781.7453002929688,276.84710693359375,784.142578125Q264.672119140625,786.5311889648438,255.13426208496094,794.0454711914062Q245.59536743164062,801.5599975585938,239.9884490966797,813.5018310546875ZM254.0170440673828,855.849853515625Q251.137939453125,848.8607177734375,251.28102111816406,837.901611328125Q251.4235382080078,826.9876708984375,254.5004119873047,818.8300170898438Q257.62030029296875,810.6646728515625,263.2266540527344,805.565673828125Q268.8335876464844,800.4222412109375,276.6545715332031,798.8878173828125Q284.5185852050781,797.344970703125,289.97564697265625,800.3177490234375Q295.477294921875,803.2374267578125,298.4004211425781,810.2171630859375Q301.3225402832031,817.1978759765625,301.1800231933594,828.11181640625Q301.03692626953125,839.0709228515625,297.91705322265625,847.2369995117188Q294.7961730957031,855.4032592773438,289.1909484863281,860.4129638671875Q283.6297912597656,865.4140625,275.7657775878906,866.9569091796875Q267.9447937011719,868.4913330078125,262.44195556640625,865.660888671875Q256.9391784667969,862.83056640625,254.0170440673828,855.849853515625ZM343.17724609375,772.9508056640625L327.5362548828125,776.0194091796875L328.8975830078125,783.75048828125Q329.55621337890625,787.6202392578125,329.7813415527344,790.7752685546875Q330.0510559082031,793.8771362304688,330.0010070800781,797.7083740234375L329.0645446777344,869.4301147460938L345.77154541015625,866.15234375L346.6341552734375,800.0880737304688Q351.8133544921875,793.783935546875,359.31732177734375,789.3350219726562Q366.8218688964844,784.8411865234375,376.4685363769531,782.5932006835938L376.7041015625,764.5513916015625Q367.0621032714844,766.4430541992188,359.2719421386719,772.4147338867188Q351.4827880859375,778.3862915039062,346.0924072265625,787.26416015625L343.17724609375,772.9508056640625ZM381.56622314453125,768.707275390625Q376.9661865234375,781.6068725585938,376.7614440917969,797.287353515625Q376.5566711425781,812.968505859375,380.842041015625,824.1687622070312Q385.12799072265625,835.3258666992188,392.9292297363281,842.1043701171875Q400.7740478515625,848.8292236328125,410.9833679199219,851.0032348632812Q421.2376708984375,853.16845703125,432.8796691894531,850.8843994140625Q444.69866943359375,848.5655517578125,454.8416748046875,842.2205810546875Q465.0302734375,835.8226928710938,473.31561279296875,825.8441772460938L461.6513671875,816.3125610351562Q455.927490234375,823.612548828125,448.77679443359375,828.12548828125Q441.6276550292969,832.5941162109375,433.0966491699219,834.267822265625Q421.9876403808594,836.4473266601562,413.2171936035156,832.7030029296875Q404.4907531738281,828.9490966796875,399.5209045410156,819.2161254882812Q394.5516662597656,809.4380493164062,394.7564392089844,793.7568359375Q394.961181640625,778.076416015625,400.2119140625,766.2933349609375Q405.46270751953125,754.5101928710938,414.3316650390625,747.3492431640625Q423.2452087402344,740.1351928710938,434.3542175292969,737.9556884765625Q441.8182067871094,736.4913330078125,448.3984680175781,738.3107299804688Q455.0233459472656,740.0768432617188,460.59014892578125,744.8054809570312L473.0978698730469,730.5321655273438Q465.02716064453125,724.0731811523438,455.26416015625,721.6340942382812Q445.50115966796875,719.195068359375,434.5711669921875,721.3394165039062Q422.9291687011719,723.6234741210938,412.5643310546875,729.922607421875Q402.2444763183594,736.212890625,394.1838684082031,746.0144653320312Q386.1668395996094,755.76318359375,381.56622314453125,768.707275390625ZM483.64044189453125,765.69921875Q478.0340881347656,777.596435546875,477.8270263671875,793.455078125Q477.6217041015625,809.1803588867188,482.943603515625,819.0671997070312Q488.2660827636719,828.9089965820312,497.65838623046875,832.6212768554688Q507.0496826171875,836.332763671875,519.2246704101562,833.9441528320312Q531.4436645507812,831.546875,540.9803466796875,824.121826171875Q550.5181274414062,816.6956176757812,556.1256103515625,804.70947265625Q561.7337036132812,792.67822265625,561.9390258789062,776.9529418945312Q562.1461181640625,761.0942993164062,556.8224487304688,751.3414916992188Q551.4993896484375,741.5440063476562,542.1082153320312,737.743408203125Q532.7180786132812,733.9426879882812,520.4990844726562,736.3399047851562Q508.3241271972656,738.7285766601562,498.7862243652344,746.2427978515625Q489.24737548828125,753.7573852539062,483.64044189453125,765.69921875ZM497.6690368652344,808.0472412109375Q494.7899169921875,801.0580444335938,494.9330139160156,790.0989990234375Q495.0755310058594,779.18505859375,498.15240478515625,771.0274047851562Q501.2723083496094,762.862060546875,506.878662109375,757.7630615234375Q512.485595703125,752.61962890625,520.3065795898438,751.085205078125Q528.1715698242188,749.5421752929688,533.627685546875,752.51513671875Q539.1292724609375,755.434814453125,542.0524291992188,762.41455078125Q544.9745483398438,769.395263671875,544.83203125,780.3092041015625Q544.68896484375,791.2682495117188,541.5690307617188,799.4343872070312Q538.4481201171875,807.6006469726562,532.843017578125,812.6103515625Q527.2827758789062,817.6112060546875,519.4177856445312,819.154296875Q511.5968017578125,820.6886596679688,506.0939636230469,817.8582763671875Q500.5911865234375,815.0278930664062,497.6690368652344,808.0472412109375ZM572.7444458007812,748.2177124023438Q567.1381225585938,760.1149291992188,566.9310302734375,775.9735107421875Q566.7257080078125,791.6988525390625,572.047607421875,801.585693359375Q577.3701171875,811.427490234375,586.7623901367188,815.1397705078125Q596.1536865234375,818.8512573242188,608.3286743164062,816.462646484375Q620.5476684570312,814.0653686523438,630.0843505859375,806.6403198242188Q639.6221313476562,799.214111328125,645.2296142578125,787.2279663085938Q650.8377075195312,775.1967163085938,651.0430297851562,759.471435546875Q651.2501220703125,743.61279296875,645.9264526367188,733.8599853515625Q640.6033935546875,724.0625,631.2122192382812,720.2619018554688Q621.8220825195312,716.4611206054688,609.6030883789062,718.8583984375Q597.4281005859375,721.2470703125,587.8902587890625,728.7612915039062Q578.3513793945312,736.27587890625,572.7444458007812,748.2177124023438ZM586.7730102539062,790.565673828125Q583.8939819335938,783.5765380859375,584.0370483398438,772.6174926757812Q584.1795654296875,761.7034912109375,587.2564086914062,753.5458374023438Q590.3762817382812,745.3805541992188,595.982666015625,740.2815551757812Q601.589599609375,735.1381225585938,609.4105834960938,733.6036987304688Q617.2745971679688,732.0608520507812,622.731689453125,735.0335693359375Q628.2332763671875,737.9533081054688,631.1564331054688,744.9330444335938Q634.0785522460938,751.9137573242188,633.93603515625,762.8276977539062Q633.79296875,773.7867431640625,630.6730346679688,781.952880859375Q627.5521240234375,790.119140625,621.947021484375,795.1288452148438Q616.3858032226562,800.1298828125,608.5217895507812,801.6727294921875Q600.7008056640625,803.2071533203125,595.197998046875,800.3767700195312Q589.6951293945312,797.54638671875,586.7730102539062,790.565673828125ZM675.9332885742188,707.6666870117188L660.2922973632812,710.7352905273438L661.653564453125,718.46630859375Q662.312255859375,722.3361206054688,662.5372924804688,725.4911499023438Q662.8070678710938,728.593017578125,662.7570190429688,732.4242553710938L661.820556640625,804.1459350585938L678.5275268554688,800.8681640625L679.39013671875,734.803955078125Q684.5693359375,728.4998168945312,692.0733642578125,724.0509033203125Q699.577880859375,719.5570678710938,709.2245483398438,717.30908203125L709.4600830078125,699.2672729492188Q699.8180541992188,701.158935546875,692.0278930664062,707.130615234375Q684.23876953125,713.1021728515625,678.848388671875,721.9800415039062L675.9332885742188,707.6666870117188ZM713.510986328125,721.4002075195312Q708.5675048828125,733.4785766601562,708.3651123046875,748.9812622070312Q708.169677734375,763.9486083984375,712.7389526367188,773.80517578125Q717.352783203125,783.6089477539062,725.2756958007812,787.7865600585938Q733.24267578125,791.9555053710938,742.7076416015625,790.0985107421875Q751.0606689453125,788.459716796875,758.759521484375,782.6832885742188Q766.4578857421875,776.8629150390625,772.5447387695312,768.959716796875L775.12353515625,781.9168090820312L790.7645263671875,778.84814453125L789.4022216796875,771.117431640625Q788.7435913085938,767.2476196289062,788.5194702148438,764.0926513671875Q788.2943115234375,760.936767578125,788.3443603515625,757.10595703125L789.804931640625,645.246826171875L773.0062255859375,652.1862182617188L772.3792114257812,700.2086181640625Q767.8929443359375,694.1571655273438,761.1802368164062,692.3193359375Q754.5130615234375,690.42822265625,747.6250610351562,691.7796020507812Q735.9390869140625,694.072265625,727.19775390625,701.6968383789062Q718.5003662109375,709.3129272460938,713.510986328125,721.4002075195312ZM728.1326904296875,762.4760131835938Q725.3402709960938,755.6478881835938,725.4786987304688,745.0457153320312Q725.6810913085938,729.5430297851562,732.3404541015625,718.5054931640625Q739.0439453125,707.4596557617188,750.3309326171875,705.2452392578125Q755.7958984375,704.1730346679688,760.8189697265625,706.3868408203125Q765.8877563476562,708.5470581054688,769.0006103515625,714.5130615234375Q772.1151123046875,720.4330444335938,771.9766845703125,731.03515625L771.6387329101562,756.91748046875Q766.098876953125,763.6473388671875,759.9249877929688,768.0586547851562Q753.796142578125,772.4600830078125,747.442138671875,773.7066650390625Q741.088134765625,774.9533081054688,736.0281372070312,772.125Q730.9681396484375,769.2957153320312,728.1326904296875,762.4760131835938Z"/>
    <!--<path d="M15.374 81.5676Q10.9307 93.5647 10.9307 109.205Q10.9307 124.846 15.374 136.887Q19.8174 148.885 27.7266 157.194Q35.6802 165.458 45.9443 169.635Q56.2529 173.812 67.8945 173.812Q79.7139 173.812 89.8003 169.457Q99.9312 165.058 108.107 156.705L96.2876 144.885Q90.6445 151.062 83.5352 154.172Q76.4258 157.238 67.8945 157.238Q56.7861 157.238 47.9438 151.773Q39.146 146.307 34.0361 135.599Q28.9263 124.846 28.9263 109.205Q28.9263 93.5647 34.0361 82.8118Q39.146 72.0588 47.9438 66.6379Q56.7861 61.1726 67.8945 61.1726Q75.3594 61.1726 81.98 64.283Q88.645 67.3489 94.2881 73.1697L106.641 61.3503Q98.4648 53.3079 88.645 48.9534Q78.8252 44.5989 67.8945 44.5989Q56.2529 44.5989 45.9443 48.8645Q35.6802 53.1301 27.7266 61.3503Q19.8174 69.5261 15.374 81.5676ZM117.671 98.5857Q112.206 109.383 112.206 125.201Q112.206 140.886 117.671 151.817Q123.136 162.703 132.601 168.258Q142.065 173.812 154.24 173.812Q166.459 173.812 175.923 168.258Q185.388 162.703 190.853 151.817Q196.318 140.886 196.318 125.201Q196.318 109.383 190.853 98.5857Q185.388 87.7439 175.923 82.1008Q166.459 76.4578 154.24 76.4578Q142.065 76.4578 132.601 82.1008Q123.136 87.7439 117.671 98.5857ZM132.29 143.686Q129.312 136.132 129.312 125.201Q129.312 114.315 132.29 106.761Q135.311 99.2078 140.865 95.2087Q146.419 91.1653 154.24 91.1653Q162.104 91.1653 167.614 95.2087Q173.168 99.2078 176.19 106.761Q179.211 114.315 179.211 125.201Q179.211 136.132 176.19 143.686Q173.168 151.24 167.614 155.15Q162.104 159.06 154.24 159.06Q146.419 159.06 140.865 155.15Q135.311 151.24 132.29 143.686ZM207.708 171.99L207.708 41.844L224.415 38.2004L224.415 171.99L207.708 171.99ZM241.279 98.5857Q235.814 109.383 235.814 125.201Q235.814 140.886 241.279 151.817Q246.744 162.703 256.209 168.258Q265.673 173.812 277.848 173.812Q290.067 173.812 299.531 168.258Q308.996 162.703 314.461 151.817Q319.926 140.886 319.926 125.201Q319.926 109.383 314.461 98.5857Q308.996 87.7439 299.531 82.1008Q290.067 76.4578 277.848 76.4578Q265.673 76.4578 256.209 82.1008Q246.744 87.7439 241.279 98.5857ZM255.898 143.686Q252.92 136.132 252.92 125.201Q252.92 114.315 255.898 106.761Q258.919 99.2078 264.473 95.2087Q270.027 91.1653 277.848 91.1653Q285.712 91.1653 291.222 95.2087Q296.776 99.2078 299.798 106.761Q302.819 114.315 302.819 125.201Q302.819 136.132 299.798 143.686Q296.776 151.24 291.222 155.15Q285.712 159.06 277.848 159.06Q270.027 159.06 264.473 155.15Q258.919 151.24 255.898 143.686ZM344.202 78.2795L328.561 78.2795L330.027 86.2776Q330.738 90.2766 331.005 93.4758Q331.316 96.6306 331.316 100.452L331.316 171.99L348.023 171.99L348.023 106.095Q353.133 100.807 360.598 97.8303Q368.063 94.8088 377.705 94.4534L377.705 76.4578Q368.063 76.4578 360.331 80.9011Q352.6 85.3445 347.312 93.1648L344.202 78.2795ZM382.634 81.5676Q378.191 93.5647 378.191 109.205Q378.191 124.846 382.634 136.887Q387.077 148.885 394.987 157.194Q402.94 165.458 413.204 169.635Q423.513 173.812 435.155 173.812Q446.974 173.812 457.06 169.457Q467.191 165.058 475.367 156.705L463.548 144.885Q457.905 151.062 450.795 154.172Q443.686 157.238 435.155 157.238Q424.046 157.238 415.204 151.773Q406.406 146.307 401.296 135.599Q396.186 124.846 396.186 109.205Q396.186 93.5647 401.296 82.8118Q406.406 72.0588 415.204 66.6379Q424.046 61.1726 435.155 61.1726Q442.619 61.1726 449.24 64.283Q455.905 67.3489 461.548 73.1697L473.901 61.3503Q465.725 53.3079 455.905 48.9534Q446.085 44.5989 435.155 44.5989Q423.513 44.5989 413.204 48.8645Q402.94 53.1301 394.987 61.3503Q387.077 69.5261 382.634 81.5676ZM484.931 98.5857Q479.466 109.383 479.466 125.201Q479.466 140.886 484.931 151.817Q490.396 162.703 499.861 168.258Q509.325 173.812 521.5 173.812Q533.719 173.812 543.183 168.258Q552.648 162.703 558.113 151.817Q563.578 140.886 563.578 125.201Q563.578 109.383 558.113 98.5857Q552.648 87.7439 543.183 82.1008Q533.719 76.4578 521.5 76.4578Q509.325 76.4578 499.861 82.1008Q490.396 87.7439 484.931 98.5857ZM499.55 143.686Q496.572 136.132 496.572 125.201Q496.572 114.315 499.55 106.761Q502.571 99.2078 508.125 95.2087Q513.679 91.1653 521.5 91.1653Q529.365 91.1653 534.874 95.2087Q540.428 99.2078 543.45 106.761Q546.471 114.315 546.471 125.201Q546.471 136.132 543.45 143.686Q540.428 151.24 534.874 155.15Q529.365 159.06 521.5 159.06Q513.679 159.06 508.125 155.15Q502.571 151.24 499.55 143.686ZM574.035 98.5857Q568.57 109.383 568.57 125.201Q568.57 140.886 574.035 151.817Q579.5 162.703 588.965 168.258Q598.429 173.812 610.604 173.812Q622.823 173.812 632.287 168.258Q641.752 162.703 647.217 151.817Q652.682 140.886 652.682 125.201Q652.682 109.383 647.217 98.5857Q641.752 87.7439 632.287 82.1008Q622.823 76.4578 610.604 76.4578Q598.429 76.4578 588.965 82.1008Q579.5 87.7439 574.035 98.5857ZM588.654 143.686Q585.676 136.132 585.676 125.201Q585.676 114.315 588.654 106.761Q591.675 99.2078 597.229 95.2087Q602.783 91.1653 610.604 91.1653Q618.468 91.1653 623.978 95.2087Q629.532 99.2078 632.554 106.761Q635.575 114.315 635.575 125.201Q635.575 136.132 632.554 143.686Q629.532 151.24 623.978 155.15Q618.468 159.06 610.604 159.06Q602.783 159.06 597.229 155.15Q591.675 151.24 588.654 143.686ZM676.958 78.2795L661.317 78.2795L662.783 86.2776Q663.494 90.2766 663.761 93.4758Q664.072 96.6306 664.072 100.452L664.072 171.99L680.779 171.99L680.779 106.095Q685.889 100.807 693.354 97.8303Q700.819 94.8088 710.461 94.4534L710.461 76.4578Q700.819 76.4578 693.087 80.9011Q685.356 85.3445 680.068 93.1648L676.958 78.2795ZM714.812 99.3855Q710.014 110.494 710.014 125.957Q710.014 140.886 714.724 151.639Q719.478 162.348 727.476 168.08Q735.518 173.812 744.983 173.812Q753.336 173.812 760.979 169.546Q768.621 165.236 774.62 158.527L777.375 171.99L793.016 171.99L791.549 163.992Q790.838 159.993 790.572 156.794Q790.305 153.594 790.305 149.773L790.305 38.2004L773.554 41.844L773.554 89.7434Q768.977 82.8118 762.223 79.657Q755.514 76.4578 748.626 76.4578Q736.94 76.4578 728.276 82.3674Q719.656 88.2771 714.812 99.3855ZM730.009 143.33Q727.12 135.954 727.12 125.379Q727.12 109.916 733.652 100.185Q740.228 90.4543 751.515 90.4543Q756.98 90.4543 762.045 93.6536Q767.155 96.8083 770.354 103.385Q773.554 109.916 773.554 120.491L773.554 146.307Q768.088 151.95 761.956 155.15Q755.869 158.349 749.515 158.349Q743.161 158.349 738.051 154.528Q732.941 150.706 730.009 143.33Z" transform="translate(0 762) skewY(-11.1) skewX(-.75)" />-->
    <linearGradient id="gradient_a" gradientUnits="userSpaceOnUse" x1="26.108" y1="774.576" x2="810.149" y2="539.736">
      <stop offset="0" stop-color="#AD0028" />
      <stop offset="0.24" stop-color="#AC0633" />
      <stop offset="0.352" stop-color="#A7063C" />
      <stop offset="0.494" stop-color="#A2065C" />
      <stop offset="0.745" stop-color="#7612B5" />
      <stop offset="1" stop-color="#5600C7" />
    </linearGradient>
    <linearGradient id="gradient_b" gradientUnits="userSpaceOnUse" x1="247.175" y1="-3.919" x2="462.3" y2="443.539">
      <stop offset="0" stop-color="#FF31D9" />
      <stop offset="1" stop-color="#FF5BE1" stop-opacity="0" />
    </linearGradient>
  </defs>
  <g fill="url(#gradient_a)">
    <use p3:href="#path_1" fill-rule="evenodd" xmlns:p3="http://www.w3.org/1999/xlink" />
    <use p3:href="#text_1" fill-rule="evenodd" xmlns:p3="http://www.w3.org/1999/xlink" />
  </g>
  <g fill="url(#gradient_b)">
    <use p3:href="#path_1" fill-rule="evenodd" xmlns:p3="http://www.w3.org/1999/xlink" />
  </g>
</svg>
