<?xml version="1.0" encoding="utf-8"?>
<svg width="3960" height="800" viewBox="0 0 3960 800" fill="none" xmlns="http://www.w3.org/2000/svg">
	<defs>
		<path id="path_1" d="M793.707 0L0 0L0 800C45.4171 769.721 46.7403 748.628 48.1167 726.688C49.0086 712.471 49.9228 697.898 62.8724 680.239C62.8724 680.239 49.8987 690.219 44.9089 710.179C44.9089 710.179 42.9129 675.249 72.8522 646.306C96.6029 623.346 127.89 620.485 139.81 620.282C142.515 620.237 145.005 622.535 145.638 625.165C149.373 640.698 159.296 650.622 174.828 654.357C177.458 654.99 180.283 657.387 180.845 660.033C182.957 669.984 186.081 694.655 174.646 725.149C159.676 765.07 117.761 785.03 117.761 785.03C124.747 775.05 139.716 755.09 139.716 755.09C114.832 784.952 99.8756 799.922 0.778716 800L800 800L800 387.844C799.909 490.576 739.214 577.196 626.098 648.075C495.363 729.993 247.093 747.452 207.24 682.154C203.35 673.394 200.754 665.689 198.987 658.743C200.585 658.698 202.156 658.477 203.349 658.099C219.074 653.117 275.236 628.6 391.234 512.597C448.71 456.762 516.454 386.334 580.593 316.077C589.186 315.37 597.879 312.714 606.28 307.863C628.405 295.089 642.759 270.413 643.603 245.756C664.743 221.689 684.86 198.257 703.353 176.1C754.775 224.135 785.863 283.402 795.6 338.666C798.529 355.289 799.986 371.529 800 387.384L800 6.70684C798.828 54.0199 544.951 338.67 378.686 500.596C264.845 614.726 214.104 635.63 199.336 639.459C197.291 639.99 194.18 640.016 191.641 639.811C175.047 636.448 164.486 626.359 160.609 610.195C159.978 607.565 159.858 603.192 160.533 600.572C164.345 585.781 185.178 534.914 299.047 420.755C465.781 258.373 747.977 3.66761e-10 793.707 0ZM800 0L793.707 0C793.807 3.66761e-10 793.906 0.00123514 794.004 0.00370913L794 8.80493e-06L800 0L800 0ZM800 5.99998L799.998 5.99794C799.999 6.02039 799.999 6.04291 800 6.06548L800 5.99998L800 5.99998ZM191.641 639.811C192.582 640.001 193.542 640.17 194.522 640.318L189.678 639.589C190.263 639.677 190.93 639.753 191.641 639.811ZM416.092 78.414C489.401 75.4556 552.63 88.5371 605.388 111.799C561.379 150.104 513.055 193.887 464.979 238.433C466.942 232.412 468 225.874 468 218.9C468 181.621 437.779 146 400.5 146C363.221 146 333 180.721 333 218C333 255.279 363.221 281 400.5 281C408.267 281 415.727 279.923 422.671 277.88C373.933 323.596 326.869 368.654 286.397 407.971C280.705 413.663 275.24 419.218 269.994 424.636C268.354 420.012 265.494 414.957 262.645 412.109C235.128 384.594 186.024 390.13 159.342 403.08C130.445 417.106 105.026 442.392 113.395 481.08C120.964 516.074 159.563 524.154 190.756 516.338C177.737 533.901 168.315 548.623 161.498 560.697C117.148 532.553 19.6448 551.958 1.35215 448.772C-18.7745 335.241 188.91 87.582 416.092 78.414ZM188.685 327.739C212.647 356.297 252.331 356.574 280.888 332.612C309.446 308.649 316.642 270.21 292.679 241.652C268.716 213.095 222.669 205.233 194.112 229.196C165.554 253.158 164.722 299.182 188.685 327.739ZM658 333C620.721 333 595 363.221 595 400.5C595 437.779 619.821 468 657.1 468C694.379 468 730 437.779 730 400.5C730 363.221 695.279 333 658 333Z" />
		<path id="text_1" d="M959.1309204101562,313.72198486328125Q942.041015625,359.864013671875,942.041015625,420.02099609375Q942.041015625,480.177001953125,959.1309204101562,526.489990234375Q976.220703125,572.6329956054688,1006.6409912109375,604.5910034179688Q1037.23095703125,636.3779907226562,1076.708984375,652.4420166015625Q1116.35693359375,668.5070190429688,1161.133056640625,668.5070190429688Q1206.592041015625,668.5070190429688,1245.385986328125,651.7589721679688Q1284.35107421875,634.8400268554688,1315.7960205078125,602.7109985351562L1270.3370361328125,557.2520141601562Q1248.633056640625,581.0070190429688,1221.2890625,592.969970703125Q1193.945068359375,604.7620239257812,1161.133056640625,604.7620239257812Q1118.407958984375,604.7620239257812,1084.3990478515625,583.7410278320312Q1050.56201171875,562.7210083007812,1030.907958984375,521.5339965820312Q1011.2550048828125,480.177001953125,1011.2550048828125,420.02099609375Q1011.2550048828125,359.864013671875,1030.907958984375,318.5069885253906Q1050.56201171875,277.14898681640625,1084.3990478515625,256.29998779296875Q1118.407958984375,235.2790069580078,1161.133056640625,235.2790069580078Q1189.843994140625,235.2790069580078,1215.3079833984375,247.24200439453125Q1240.9420166015625,259.03399658203125,1262.64599609375,281.4219970703125L1310.156005859375,235.96299743652344Q1278.7109375,205.02999877929688,1240.9420166015625,188.28199768066406Q1203.174072265625,171.53399658203125,1161.133056640625,171.53399658203125Q1116.35693359375,171.53399658203125,1076.708984375,187.94000244140625Q1037.23095703125,204.3470001220703,1006.6409912109375,235.96299743652344Q976.220703125,267.4079895019531,959.1309204101562,313.72198486328125ZM1352.572998046875,379.1759948730469Q1331.552001953125,420.7040100097656,1331.552001953125,481.54400634765625Q1331.552001953125,541.8709716796875,1352.572998046875,583.9119873046875Q1373.593017578125,625.781982421875,1409.9949951171875,647.14501953125Q1446.39599609375,668.5070190429688,1493.221923828125,668.5070190429688Q1540.218994140625,668.5070190429688,1576.6199951171875,647.14501953125Q1613.02197265625,625.781982421875,1634.0419921875,583.9119873046875Q1655.06298828125,541.8709716796875,1655.06298828125,481.54400634765625Q1655.06298828125,420.7040100097656,1634.0419921875,379.1759948730469Q1613.02197265625,337.47698974609375,1576.6199951171875,315.7720031738281Q1540.218994140625,294.0679931640625,1493.221923828125,294.0679931640625Q1446.39599609375,294.0679931640625,1409.9949951171875,315.7720031738281Q1373.593017578125,337.47698974609375,1352.572998046875,379.1759948730469ZM1408.7979736328125,552.6380004882812Q1397.3480224609375,523.5850219726562,1397.3480224609375,481.54400634765625Q1397.3480224609375,439.67401123046875,1408.7979736328125,410.6210021972656Q1420.4189453125,381.5679931640625,1441.781982421875,366.18798828125Q1463.14404296875,350.635986328125,1493.221923828125,350.635986328125Q1523.470947265625,350.635986328125,1544.6619873046875,366.18798828125Q1566.0250244140625,381.5679931640625,1577.64599609375,410.6210021972656Q1589.26708984375,439.67401123046875,1589.26708984375,481.54400634765625Q1589.26708984375,523.5850219726562,1577.64599609375,552.6380004882812Q1566.0250244140625,581.6900024414062,1544.6619873046875,596.72900390625Q1523.470947265625,611.7689819335938,1493.221923828125,611.7689819335938Q1463.14404296875,611.7689819335938,1441.781982421875,596.72900390625Q1420.4189453125,581.6900024414062,1408.7979736328125,552.6380004882812ZM1698.861083984375,661.5L1698.861083984375,160.93800354003906L1763.1190185546875,146.9250030517578L1763.1190185546875,661.5L1698.861083984375,661.5ZM1827.9730224609375,379.1759948730469Q1806.9520263671875,420.7040100097656,1806.9520263671875,481.54400634765625Q1806.9520263671875,541.8709716796875,1827.9730224609375,583.9119873046875Q1848.992919921875,625.781982421875,1885.39404296875,647.14501953125Q1921.800048828125,668.5070190429688,1968.6199951171875,668.5070190429688Q2015.6199951171875,668.5070190429688,2052.02001953125,647.14501953125Q2088.419921875,625.781982421875,2109.43994140625,583.9119873046875Q2130.4599609375,541.8709716796875,2130.4599609375,481.54400634765625Q2130.4599609375,420.7040100097656,2109.43994140625,379.1759948730469Q2088.419921875,337.47698974609375,2052.02001953125,315.7720031738281Q2015.6199951171875,294.0679931640625,1968.6199951171875,294.0679931640625Q1921.800048828125,294.0679931640625,1885.39404296875,315.7720031738281Q1848.992919921875,337.47698974609375,1827.9730224609375,379.1759948730469ZM1884.197998046875,552.6380004882812Q1872.748046875,523.5850219726562,1872.748046875,481.54400634765625Q1872.748046875,439.67401123046875,1884.197998046875,410.6210021972656Q1895.8189697265625,381.5679931640625,1917.179931640625,366.18798828125Q1938.5400390625,350.635986328125,1968.6199951171875,350.635986328125Q1998.8699951171875,350.635986328125,2020.06005859375,366.18798828125Q2041.4200439453125,381.5679931640625,2053.050048828125,410.6210021972656Q2064.669921875,439.67401123046875,2064.669921875,481.54400634765625Q2064.669921875,523.5850219726562,2053.050048828125,552.6380004882812Q2041.4200439453125,581.6900024414062,2020.06005859375,596.72900390625Q1998.8699951171875,611.7689819335938,1968.6199951171875,611.7689819335938Q1938.5400390625,611.7689819335938,1917.179931640625,596.72900390625Q1895.8189697265625,581.6900024414062,1884.197998046875,552.6380004882812ZM2223.81982421875,301.07501220703125L2163.669921875,301.07501220703125L2169.31005859375,331.8370056152344Q2172.0400390625,347.2179870605469,2173.06982421875,359.5220031738281Q2174.260009765625,371.656005859375,2174.260009765625,386.35400390625L2174.260009765625,661.5L2238.52001953125,661.5L2238.52001953125,408.0580139160156Q2258.169921875,387.72100830078125,2286.8798828125,376.27099609375Q2315.58984375,364.64898681640625,2352.68017578125,363.2820129394531L2352.68017578125,294.0679931640625Q2315.58984375,294.0679931640625,2285.85986328125,311.1579895019531Q2256.1201171875,328.24798583984375,2235.780029296875,358.32598876953125L2223.81982421875,301.07501220703125ZM2371.6298828125,313.72198486328125Q2354.5400390625,359.864013671875,2354.5400390625,420.02099609375Q2354.5400390625,480.177001953125,2371.6298828125,526.489990234375Q2388.719970703125,572.6329956054688,2419.14013671875,604.5910034179688Q2449.72998046875,636.3779907226562,2489.2099609375,652.4420166015625Q2528.85986328125,668.5070190429688,2573.6298828125,668.5070190429688Q2619.08984375,668.5070190429688,2657.89013671875,651.7589721679688Q2696.85009765625,634.8400268554688,2728.300048828125,602.7109985351562L2682.83984375,557.2520141601562Q2661.1298828125,581.0070190429688,2633.7900390625,592.969970703125Q2606.449951171875,604.7620239257812,2573.6298828125,604.7620239257812Q2530.91015625,604.7620239257812,2496.89990234375,583.7410278320312Q2463.06005859375,562.7210083007812,2443.41015625,521.5339965820312Q2423.75,480.177001953125,2423.75,420.02099609375Q2423.75,359.864013671875,2443.41015625,318.5069885253906Q2463.06005859375,277.14898681640625,2496.89990234375,256.29998779296875Q2530.91015625,235.2790069580078,2573.6298828125,235.2790069580078Q2602.33984375,235.2790069580078,2627.81005859375,247.24200439453125Q2653.43994140625,259.03399658203125,2675.14990234375,281.4219970703125L2722.66015625,235.96299743652344Q2691.2099609375,205.02999877929688,2653.43994140625,188.28199768066406Q2615.669921875,171.53399658203125,2573.6298828125,171.53399658203125Q2528.85986328125,171.53399658203125,2489.2099609375,187.94000244140625Q2449.72998046875,204.3470001220703,2419.14013671875,235.96299743652344Q2388.719970703125,267.4079895019531,2371.6298828125,313.72198486328125ZM2765.06982421875,379.1759948730469Q2744.050048828125,420.7040100097656,2744.050048828125,481.54400634765625Q2744.050048828125,541.8709716796875,2765.06982421875,583.9119873046875Q2786.08984375,625.781982421875,2822.489990234375,647.14501953125Q2858.89990234375,668.5070190429688,2905.719970703125,668.5070190429688Q2952.719970703125,668.5070190429688,2989.1201171875,647.14501953125Q3025.52001953125,625.781982421875,3046.5400390625,583.9119873046875Q3067.56005859375,541.8709716796875,3067.56005859375,481.54400634765625Q3067.56005859375,420.7040100097656,3046.5400390625,379.1759948730469Q3025.52001953125,337.47698974609375,2989.1201171875,315.7720031738281Q2952.719970703125,294.0679931640625,2905.719970703125,294.0679931640625Q2858.89990234375,294.0679931640625,2822.489990234375,315.7720031738281Q2786.08984375,337.47698974609375,2765.06982421875,379.1759948730469ZM2821.300048828125,552.6380004882812Q2809.85009765625,523.5850219726562,2809.85009765625,481.54400634765625Q2809.85009765625,439.67401123046875,2821.300048828125,410.6210021972656Q2832.919921875,381.5679931640625,2854.280029296875,366.18798828125Q2875.64013671875,350.635986328125,2905.719970703125,350.635986328125Q2935.969970703125,350.635986328125,2957.159912109375,366.18798828125Q2978.52001953125,381.5679931640625,2990.14990234375,410.6210021972656Q3001.77001953125,439.67401123046875,3001.77001953125,481.54400634765625Q3001.77001953125,523.5850219726562,2990.14990234375,552.6380004882812Q2978.52001953125,581.6900024414062,2957.159912109375,596.72900390625Q2935.969970703125,611.7689819335938,2905.719970703125,611.7689819335938Q2875.64013671875,611.7689819335938,2854.280029296875,596.72900390625Q2832.919921875,581.6900024414062,2821.300048828125,552.6380004882812ZM3107.77001953125,379.1759948730469Q3086.75,420.7040100097656,3086.75,481.54400634765625Q3086.75,541.8709716796875,3107.77001953125,583.9119873046875Q3128.7900390625,625.781982421875,3165.18994140625,647.14501953125Q3201.60009765625,668.5070190429688,3248.419921875,668.5070190429688Q3295.419921875,668.5070190429688,3331.820068359375,647.14501953125Q3368.219970703125,625.781982421875,3389.239990234375,583.9119873046875Q3410.260009765625,541.8709716796875,3410.260009765625,481.54400634765625Q3410.260009765625,420.7040100097656,3389.239990234375,379.1759948730469Q3368.219970703125,337.47698974609375,3331.820068359375,315.7720031738281Q3295.419921875,294.0679931640625,3248.419921875,294.0679931640625Q3201.60009765625,294.0679931640625,3165.18994140625,315.7720031738281Q3128.7900390625,337.47698974609375,3107.77001953125,379.1759948730469ZM3164,552.6380004882812Q3152.550048828125,523.5850219726562,3152.550048828125,481.54400634765625Q3152.550048828125,439.67401123046875,3164,410.6210021972656Q3175.6201171875,381.5679931640625,3196.97998046875,366.18798828125Q3218.340087890625,350.635986328125,3248.419921875,350.635986328125Q3278.669921875,350.635986328125,3299.860107421875,366.18798828125Q3321.219970703125,381.5679931640625,3332.85009765625,410.6210021972656Q3344.469970703125,439.67401123046875,3344.469970703125,481.54400634765625Q3344.469970703125,523.5850219726562,3332.85009765625,552.6380004882812Q3321.219970703125,581.6900024414062,3299.860107421875,596.72900390625Q3278.669921875,611.7689819335938,3248.419921875,611.7689819335938Q3218.340087890625,611.7689819335938,3196.97998046875,596.72900390625Q3175.6201171875,581.6900024414062,3164,552.6380004882812ZM3503.6201171875,301.07501220703125L3443.469970703125,301.07501220703125L3449.110107421875,331.8370056152344Q3451.840087890625,347.2179870605469,3452.8701171875,359.5220031738281Q3454.06005859375,371.656005859375,3454.06005859375,386.35400390625L3454.06005859375,661.5L3518.320068359375,661.5L3518.320068359375,408.0580139160156Q3537.969970703125,387.72100830078125,3566.679931640625,376.27099609375Q3595.389892578125,364.64898681640625,3632.47998046875,363.2820129394531L3632.47998046875,294.0679931640625Q3595.389892578125,294.0679931640625,3565.659912109375,311.1579895019531Q3535.919921875,328.24798583984375,3515.580078125,358.32598876953125L3503.6201171875,301.07501220703125ZM3649.2099609375,382.25201416015625Q3630.75,424.97698974609375,3630.75,484.4490051269531Q3630.75,541.8709716796875,3648.8701171875,583.22900390625Q3667.14990234375,624.4149780273438,3697.919921875,646.4609985351562Q3728.85009765625,668.5070190429688,3765.25,668.5070190429688Q3797.3798828125,668.5070190429688,3826.77001953125,652.1010131835938Q3856.169921875,635.5230102539062,3879.239990234375,609.718017578125L3889.830078125,661.5L3949.989990234375,661.5L3944.35009765625,630.7379760742188Q3941.6201171875,615.3569946289062,3940.590087890625,603.052978515625Q3939.570068359375,590.7479858398438,3939.570068359375,576.051025390625L3939.570068359375,146.9250030517578L3875.139892578125,160.93800354003906L3875.139892578125,345.1669921875Q3857.530029296875,318.5069885253906,3831.56005859375,306.37298583984375Q3805.75,294.0679931640625,3779.260009765625,294.0679931640625Q3734.320068359375,294.0679931640625,3700.989990234375,316.7980041503906Q3667.840087890625,339.5270080566406,3649.2099609375,382.25201416015625ZM3707.659912109375,551.27099609375Q3696.550048828125,522.9010009765625,3696.550048828125,482.2279968261719Q3696.550048828125,422.7550048828125,3721.669921875,385.3280029296875Q3746.9599609375,347.9010009765625,3790.3701171875,347.9010009765625Q3811.389892578125,347.9010009765625,3830.8701171875,360.20599365234375Q3850.530029296875,372.3399963378906,3862.830078125,397.63299560546875Q3875.139892578125,422.7550048828125,3875.139892578125,463.4289855957031L3875.139892578125,562.7210083007812Q3854.1201171875,584.4249877929688,3830.530029296875,596.72900390625Q3807.1201171875,609.0339965820312,3782.679931640625,609.0339965820312Q3758.239990234375,609.0339965820312,3738.590087890625,594.3369750976562Q3718.93994140625,579.6400146484375,3707.659912109375,551.27099609375Z" />
		<!--<path d="M59.1309 313.722Q42.041 359.864 42.041 420.021Q42.041 480.177 59.1309 526.49Q76.2207 572.633 106.641 604.591Q137.231 636.378 176.709 652.442Q216.357 668.507 261.133 668.507Q306.592 668.507 345.386 651.759Q384.351 634.84 415.796 602.711L370.337 557.252Q348.633 581.007 321.289 592.97Q293.945 604.762 261.133 604.762Q218.408 604.762 184.399 583.741Q150.562 562.721 130.908 521.534Q111.255 480.177 111.255 420.021Q111.255 359.864 130.908 318.507Q150.562 277.149 184.399 256.3Q218.408 235.279 261.133 235.279Q289.844 235.279 315.308 247.242Q340.942 259.034 362.646 281.422L410.156 235.963Q378.711 205.03 340.942 188.282Q303.174 171.534 261.133 171.534Q216.357 171.534 176.709 187.94Q137.231 204.347 106.641 235.963Q76.2207 267.408 59.1309 313.722ZM452.573 379.176Q431.552 420.704 431.552 481.544Q431.552 541.871 452.573 583.912Q473.593 625.782 509.995 647.145Q546.396 668.507 593.222 668.507Q640.219 668.507 676.62 647.145Q713.022 625.782 734.042 583.912Q755.063 541.871 755.063 481.544Q755.063 420.704 734.042 379.176Q713.022 337.477 676.62 315.772Q640.219 294.068 593.222 294.068Q546.396 294.068 509.995 315.772Q473.593 337.477 452.573 379.176ZM508.798 552.638Q497.348 523.585 497.348 481.544Q497.348 439.674 508.798 410.621Q520.419 381.568 541.782 366.188Q563.144 350.636 593.222 350.636Q623.471 350.636 644.662 366.188Q666.025 381.568 677.646 410.621Q689.267 439.674 689.267 481.544Q689.267 523.585 677.646 552.638Q666.025 581.69 644.662 596.729Q623.471 611.769 593.222 611.769Q563.144 611.769 541.782 596.729Q520.419 581.69 508.798 552.638ZM798.861 661.5L798.861 160.938L863.119 146.925L863.119 661.5L798.861 661.5ZM927.973 379.176Q906.952 420.704 906.952 481.544Q906.952 541.871 927.973 583.912Q948.993 625.782 985.394 647.145Q1021.8 668.507 1068.62 668.507Q1115.62 668.507 1152.02 647.145Q1188.42 625.782 1209.44 583.912Q1230.46 541.871 1230.46 481.544Q1230.46 420.704 1209.44 379.176Q1188.42 337.477 1152.02 315.772Q1115.62 294.068 1068.62 294.068Q1021.8 294.068 985.394 315.772Q948.993 337.477 927.973 379.176ZM984.198 552.638Q972.748 523.585 972.748 481.544Q972.748 439.674 984.198 410.621Q995.819 381.568 1017.18 366.188Q1038.54 350.636 1068.62 350.636Q1098.87 350.636 1120.06 366.188Q1141.42 381.568 1153.05 410.621Q1164.67 439.674 1164.67 481.544Q1164.67 523.585 1153.05 552.638Q1141.42 581.69 1120.06 596.729Q1098.87 611.769 1068.62 611.769Q1038.54 611.769 1017.18 596.729Q995.819 581.69 984.198 552.638ZM1323.82 301.075L1263.67 301.075L1269.31 331.837Q1272.04 347.218 1273.07 359.522Q1274.26 371.656 1274.26 386.354L1274.26 661.5L1338.52 661.5L1338.52 408.058Q1358.17 387.721 1386.88 376.271Q1415.59 364.649 1452.68 363.282L1452.68 294.068Q1415.59 294.068 1385.86 311.158Q1356.12 328.248 1335.78 358.326L1323.82 301.075ZM1471.63 313.722Q1454.54 359.864 1454.54 420.021Q1454.54 480.177 1471.63 526.49Q1488.72 572.633 1519.14 604.591Q1549.73 636.378 1589.21 652.442Q1628.86 668.507 1673.63 668.507Q1719.09 668.507 1757.89 651.759Q1796.85 634.84 1828.3 602.711L1782.84 557.252Q1761.13 581.007 1733.79 592.97Q1706.45 604.762 1673.63 604.762Q1630.91 604.762 1596.9 583.741Q1563.06 562.721 1543.41 521.534Q1523.75 480.177 1523.75 420.021Q1523.75 359.864 1543.41 318.507Q1563.06 277.149 1596.9 256.3Q1630.91 235.279 1673.63 235.279Q1702.34 235.279 1727.81 247.242Q1753.44 259.034 1775.15 281.422L1822.66 235.963Q1791.21 205.03 1753.44 188.282Q1715.67 171.534 1673.63 171.534Q1628.86 171.534 1589.21 187.94Q1549.73 204.347 1519.14 235.963Q1488.72 267.408 1471.63 313.722ZM1865.07 379.176Q1844.05 420.704 1844.05 481.544Q1844.05 541.871 1865.07 583.912Q1886.09 625.782 1922.49 647.145Q1958.9 668.507 2005.72 668.507Q2052.72 668.507 2089.12 647.145Q2125.52 625.782 2146.54 583.912Q2167.56 541.871 2167.56 481.544Q2167.56 420.704 2146.54 379.176Q2125.52 337.477 2089.12 315.772Q2052.72 294.068 2005.72 294.068Q1958.9 294.068 1922.49 315.772Q1886.09 337.477 1865.07 379.176ZM1921.3 552.638Q1909.85 523.585 1909.85 481.544Q1909.85 439.674 1921.3 410.621Q1932.92 381.568 1954.28 366.188Q1975.64 350.636 2005.72 350.636Q2035.97 350.636 2057.16 366.188Q2078.52 381.568 2090.15 410.621Q2101.77 439.674 2101.77 481.544Q2101.77 523.585 2090.15 552.638Q2078.52 581.69 2057.16 596.729Q2035.97 611.769 2005.72 611.769Q1975.64 611.769 1954.28 596.729Q1932.92 581.69 1921.3 552.638ZM2207.77 379.176Q2186.75 420.704 2186.75 481.544Q2186.75 541.871 2207.77 583.912Q2228.79 625.782 2265.19 647.145Q2301.6 668.507 2348.42 668.507Q2395.42 668.507 2431.82 647.145Q2468.22 625.782 2489.24 583.912Q2510.26 541.871 2510.26 481.544Q2510.26 420.704 2489.24 379.176Q2468.22 337.477 2431.82 315.772Q2395.42 294.068 2348.42 294.068Q2301.6 294.068 2265.19 315.772Q2228.79 337.477 2207.77 379.176ZM2264 552.638Q2252.55 523.585 2252.55 481.544Q2252.55 439.674 2264 410.621Q2275.62 381.568 2296.98 366.188Q2318.34 350.636 2348.42 350.636Q2378.67 350.636 2399.86 366.188Q2421.22 381.568 2432.85 410.621Q2444.47 439.674 2444.47 481.544Q2444.47 523.585 2432.85 552.638Q2421.22 581.69 2399.86 596.729Q2378.67 611.769 2348.42 611.769Q2318.34 611.769 2296.98 596.729Q2275.62 581.69 2264 552.638ZM2603.62 301.075L2543.47 301.075L2549.11 331.837Q2551.84 347.218 2552.87 359.522Q2554.06 371.656 2554.06 386.354L2554.06 661.5L2618.32 661.5L2618.32 408.058Q2637.97 387.721 2666.68 376.271Q2695.39 364.649 2732.48 363.282L2732.48 294.068Q2695.39 294.068 2665.66 311.158Q2635.92 328.248 2615.58 358.326L2603.62 301.075ZM2749.21 382.252Q2730.75 424.977 2730.75 484.449Q2730.75 541.871 2748.87 583.229Q2767.15 624.415 2797.92 646.461Q2828.85 668.507 2865.25 668.507Q2897.38 668.507 2926.77 652.101Q2956.17 635.523 2979.24 609.718L2989.83 661.5L3049.99 661.5L3044.35 630.738Q3041.62 615.357 3040.59 603.053Q3039.57 590.748 3039.57 576.051L3039.57 146.925L2975.14 160.938L2975.14 345.167Q2957.53 318.507 2931.56 306.373Q2905.75 294.068 2879.26 294.068Q2834.32 294.068 2800.99 316.798Q2767.84 339.527 2749.21 382.252ZM2807.66 551.271Q2796.55 522.901 2796.55 482.228Q2796.55 422.755 2821.67 385.328Q2846.96 347.901 2890.37 347.901Q2911.39 347.901 2930.87 360.206Q2950.53 372.34 2962.83 397.633Q2975.14 422.755 2975.14 463.429L2975.14 562.721Q2954.12 584.425 2930.53 596.729Q2907.12 609.034 2882.68 609.034Q2858.24 609.034 2838.59 594.337Q2818.94 579.64 2807.66 551.271Z" transform="translate(900 0)" />-->
		<!--
			<linearGradient id="gradient_2" gradientUnits="userSpaceOnUse" x1="0" y1="800" x2="800" y2="0">
				<stop offset="0" stop-color="#E90464" />
				<stop offset="1" stop-color="#8514F5" />
			</linearGradient>
			<linearGradient id="gradient_3" gradientUnits="userSpaceOnUse" x1="800" y1="800" x2="0" y2="0">
				<stop offset="0" stop-color="#F637E3" />
				<stop offset="0.787" stop-color="#5C44E4" />
			</linearGradient>
			<linearGradient id="gradient_4" gradientUnits="userSpaceOnUse" x1="400" y1="0" x2="400" y2="800">
				<stop offset="0" stop-color="#FFFFFF" stop-opacity="0" />
				<stop offset="0.486" stop-color="#F637E3" />
				<stop offset="1" stop-color="#FFFFFF" stop-opacity="0" />
			</linearGradient>
			-->
		<linearGradient id="gradient_a" x1="1929.235" y1="2174.576" x2="3010.238" y2="-139.736" gradientUnits="userSpaceOnUse">
			<stop _ngcontent-ng-c139922363="" stop-color="#E40035"></stop>
			<stop _ngcontent-ng-c139922363="" offset=".24" stop-color="#F60A48"></stop>
			<stop _ngcontent-ng-c139922363="" offset=".352" stop-color="#F20755"></stop>
			<stop _ngcontent-ng-c139922363="" offset=".494" stop-color="#DC087D"></stop>
			<stop _ngcontent-ng-c139922363="" offset=".745" stop-color="#9717E7"></stop>
			<stop _ngcontent-ng-c139922363="" offset="1" stop-color="#6C00F5"></stop>
		</linearGradient>
		<linearGradient id="gradient_b" x1="747.175" y1="-103.919" x2="862.3" y2="593.539" gradientUnits="userSpaceOnUse">
			<stop _ngcontent-ng-c139922363="" stop-color="#FF31D9"></stop>
			<stop _ngcontent-ng-c139922363="" offset="1" stop-color="#FF5BE1" stop-opacity="0"></stop>
		</linearGradient>
	</defs>
	<g fill="url(#gradient_a)">
		<use p3:href="#path_1" fill-rule="evenodd" xmlns:p3="http://www.w3.org/1999/xlink" />
		<use p3:href="#text_1" fill-rule="evenodd" xmlns:p3="http://www.w3.org/1999/xlink" />
	</g>
	<g fill="url(#gradient_b)">
		<use p3:href="#path_1" fill-rule="evenodd" xmlns:p3="http://www.w3.org/1999/xlink" />
		<use p3:href="#text_1" fill-rule="evenodd" xmlns:p3="http://www.w3.org/1999/xlink" />
	</g>
	<!--<line x1="1929.235" y1="1929.576" x2="3010.238" y2="-139.736" stroke-width="5" stroke="black" />
	<line x1="747.175" y1="-103.919" x2="862.3" y2="593.539" stroke-width="5" stroke="black" />-->
</svg>
