<?xml version="1.0" encoding="utf-8"?>
<svg width="800" height="800" viewBox="0 0 800 800" fill="none" xmlns="http://www.w3.org/2000/svg">
	<defs>
		<path id="path_1" d="M0 800L0.778716 800C99.8756 799.922 114.832 784.952 139.716 755.09C139.716 755.09 124.747 775.05 117.761 785.03C117.761 785.03 159.676 765.07 174.646 725.149C186.081 694.655 182.957 669.984 180.845 660.033C180.283 657.387 177.458 654.99 174.828 654.357C159.296 650.622 149.373 640.698 145.638 625.165C145.005 622.535 142.515 620.237 139.81 620.282C127.89 620.485 96.6029 623.346 72.8522 646.306C42.9129 675.249 44.9089 710.179 44.9089 710.179C49.8987 690.219 62.8724 680.239 62.8724 680.239C49.9228 697.898 49.0086 712.471 48.1167 726.688C46.7403 748.628 45.4171 769.721 0 800ZM800 387.844L800 387.384C799.986 371.529 798.529 355.289 795.6 338.666C785.863 283.402 754.775 224.135 703.353 176.1C684.86 198.257 664.743 221.689 643.603 245.756C642.759 270.413 628.405 295.089 606.28 307.863C597.879 312.714 589.186 315.37 580.593 316.077C516.454 386.334 448.71 456.762 391.234 512.597C275.236 628.6 219.074 653.117 203.349 658.099C202.156 658.477 200.585 658.698 198.987 658.743C200.754 665.689 203.35 673.394 207.24 682.154C247.093 747.452 495.363 729.993 626.098 648.075C739.214 577.196 799.909 490.576 800 387.844ZM800 6.06641L800 6.70586C798.832 54.016 544.952 338.669 378.686 500.596C264.845 614.726 214.104 635.63 199.336 639.459C197.291 639.99 194.18 640.016 191.641 639.811C175.047 636.448 164.486 626.359 160.609 610.195C159.978 607.565 159.858 603.192 160.533 600.572C164.345 585.781 185.178 534.914 299.047 420.755C465.781 258.373 747.977 7.28889e-08 793.707 7.28889e-08C795.757 7.28889e-08 797.332 0.519339 798.4 1.58995C799.425 2.61765 799.949 4.11945 800 6.06641ZM191.641 639.811C190.93 639.753 190.263 639.677 189.678 639.589L194.522 640.318C193.542 640.17 192.582 640.001 191.641 639.811ZM416.092 78.414C489.401 75.4556 552.63 88.5371 605.388 111.799C561.379 150.104 513.055 193.887 464.979 238.433C466.942 232.412 468 225.874 468 218.9C468 181.621 437.779 146 400.5 146C363.221 146 333 180.721 333 218C333 255.279 363.221 281 400.5 281C408.267 281 415.727 279.923 422.671 277.88C373.933 323.596 326.869 368.654 286.397 407.971C280.705 413.663 275.24 419.218 269.994 424.636C268.354 420.012 265.494 414.957 262.645 412.109C235.128 384.594 186.024 390.13 159.342 403.08C130.445 417.106 105.026 442.392 113.395 481.08C120.964 516.074 159.563 524.154 190.756 516.338C177.737 533.901 168.315 548.623 161.498 560.697C117.148 532.553 19.6448 551.958 1.35215 448.772C-18.7745 335.241 188.91 87.582 416.092 78.414ZM188.685 327.739C212.647 356.297 252.331 356.574 280.888 332.612C309.446 308.649 316.642 270.21 292.679 241.652C268.716 213.095 222.669 205.233 194.112 229.196C165.554 253.158 164.722 299.182 188.685 327.739ZM658 333C620.721 333 595 363.221 595 400.5C595 437.779 619.821 468 657.1 468C694.379 468 730 437.779 730 400.5C730 363.221 695.279 333 658 333Z" />
		<!--
			<linearGradient id="gradient_2" gradientUnits="userSpaceOnUse" x1="0" y1="800" x2="800" y2="0">
				<stop offset="0" stop-color="#E90464" />
				<stop offset="1" stop-color="#8514F5" />
			</linearGradient>
			<linearGradient id="gradient_3" gradientUnits="userSpaceOnUse" x1="800" y1="800" x2="0" y2="0">
				<stop offset="0" stop-color="#F637E3" />
				<stop offset="0.787" stop-color="#5C44E4" />
			</linearGradient>
			<linearGradient id="gradient_4" gradientUnits="userSpaceOnUse" x1="400" y1="0" x2="400" y2="800">
				<stop offset="0" stop-color="#FFFFFF" stop-opacity="0" />
				<stop offset="0.532" stop-color="#F637E3" />
				<stop offset="1" stop-color="#FFFFFF" stop-opacity="0" />
			</linearGradient>
		-->
		<linearGradient id="gradient_a" x1="26.108" x2="810.149" y1="774.576" y2="539.736" gradientUnits="userSpaceOnUse">
			<stop _ngcontent-ng-c139922363="" stop-color="#E40035"></stop>
			<stop _ngcontent-ng-c139922363="" offset=".24" stop-color="#F60A48"></stop>
			<stop _ngcontent-ng-c139922363="" offset=".352" stop-color="#F20755"></stop>
			<stop _ngcontent-ng-c139922363="" offset=".494" stop-color="#DC087D"></stop>
			<stop _ngcontent-ng-c139922363="" offset=".745" stop-color="#9717E7"></stop>
			<stop _ngcontent-ng-c139922363="" offset="1" stop-color="#6C00F5"></stop>
		</linearGradient>
		<linearGradient id="gradient_b" x1="247.175" x2="462.3" y1="-3.919" y2="443.539" gradientUnits="userSpaceOnUse">
			<stop _ngcontent-ng-c139922363="" stop-color="#FF31D9"></stop>
			<stop _ngcontent-ng-c139922363="" offset="1" stop-color="#FF5BE1" stop-opacity="0"></stop>
		</linearGradient>
	</defs>
	<g>
		<use p3:href="#path_1" fill="url(#gradient_a)" fill-rule="evenodd" xmlns:p3="http://www.w3.org/1999/xlink" />
		<use p3:href="#path_1" fill="url(#gradient_b)" fill-rule="evenodd" xmlns:p3="http://www.w3.org/1999/xlink" />
	</g>
</svg>
